<?xml version="1.0" encoding="UTF-8"?>
<svg width="26.458mm" height="26.458mm" version="1.1" viewBox="0 0 26.458 26.458" xmlns="http://www.w3.org/2000/svg">
 <defs>
  <clipPath id="clipPath154">
   <path transform="translate(-1064.2 -77.258)" d="m0 1710.9h2099.7v-1710.9h-2099.7z"/>
  </clipPath>
 </defs>
 <g transform="translate(-196.69 -206.74)">
  <path transform="matrix(1.616 0 0 -1.616 217.85 214.68)" d="m0 0c0 0.721-0.59 1.244-0.59 1.244s-0.851 0.393-1.047 0.393h-6.549c-0.294 0-0.869-0.197-1.179-0.557-0.508-0.589-0.557-1.506-0.065-2.128 0.293-0.392 0.785-0.59 1.244-0.59h6.549c1.67 0 2.766-0.835 3.34-1.341 2.047-1.786 2.029-4.847 0.229-6.844-0.983-1.115-1.801-1.638-3.569-1.638h-6.549c-1.244 0-2.423 0.393-3.439 1.343-1.08 1.014-1.473 2.423-1.473 3.569h3.274c0-0.491 0.099-0.885 0.426-1.212 0.328-0.327 0.556-0.426 1.212-0.426h6.549c0.196 0 0.752 0.131 1.08 0.394 0.688 0.557 0.786 1.637 0.198 2.324-0.329 0.394-0.983 0.557-1.278 0.557h-6.549c-1.507 0-2.652 0.753-3.339 1.376-2.163 1.964-1.998 5.173 0 7.04 0.621 0.589 1.67 1.408 3.339 1.408h6.549c0.785 0 2.291-0.164 3.535-1.572h0.034c0.687-0.786 1.343-2.03 1.343-3.34z" clip-path="url(#clipPath154)" fill="#231f20"/>
 </g>
</svg>
